<svg data-v-423bf9ae="" xmlns="http://www.w3.org/2000/svg" viewBox="0 0 272 90" class="iconLeft"><!----><!----><!----><g data-v-423bf9ae="" id="d51bc14b-2343-49a4-a342-31d406a2586e" fill="white" transform="matrix(5.71973320392212,0,0,5.71973320392212,92.30813439428836,-3.817922022713269)"><path d="M7.27 13.58L9.06 13.58L5.59 8.67L8.95 3.92L7.18 3.92L4.70 7.70L2.32 3.92L0.56 3.92L3.77 8.71L0.31 13.58L2.11 13.58L4.63 9.67ZM16.44 9.67C16.44 7.57 15.27 5.95 13.12 5.95C10.98 5.95 9.48 7.53 9.48 9.88C9.48 12.52 10.98 13.78 12.96 13.78C14.59 13.78 16.00 12.94 16.32 11.17L14.77 11.17C14.62 12.11 13.92 12.66 13.02 12.66C12.01 12.66 11.20 12.07 11.07 10.29L16.41 10.29C16.44 10.02 16.44 9.81 16.44 9.67ZM13.06 7.07C14.14 7.07 14.74 7.84 14.85 9.21L11.09 9.21C11.26 7.78 12.01 7.07 13.06 7.07ZM19.39 3.29L17.85 3.29L17.85 11.35C17.85 11.80 17.85 12.14 17.86 12.42C17.92 13.37 18.47 13.66 19.28 13.66C19.63 13.66 19.98 13.64 20.29 13.59L20.29 12.52C19.63 12.57 19.43 12.43 19.40 12.01C19.39 11.79 19.39 11.56 19.39 11.31ZM23.06 3.29L21.52 3.29L21.52 11.35C21.52 11.80 21.52 12.14 21.53 12.42C21.59 13.37 22.13 13.66 22.95 13.66C23.30 13.66 23.65 13.64 23.95 13.59L23.95 12.52C23.30 12.57 23.10 12.43 23.07 12.01C23.06 11.79 23.06 11.56 23.06 11.31ZM28.66 9.80L31.25 6.15L29.48 6.15L27.80 8.83L26.11 6.15L24.30 6.15L26.85 9.81L24.21 13.58L25.97 13.58L27.73 10.78L29.50 13.58L31.28 13.58Z"></path></g><!----><g data-v-423bf9ae="" id="24c1b71f-0004-4f5d-9d78-8c7988c7ea9f" transform="matrix(2.8125,0,0,2.8125,-7.170000076293945,0)" stroke="none" fill="white"><path d="M2.83 18.247l26.34-9.124L2.83 0zM29.17 32V13.753L2.83 22.877z"></path></g><!----></svg>